# xmcd
#
# Track frame offsets:
#  150
#  21902
#  41435
#
# Disc length: 971 seconds
#
# Revision: 2
# Processed by: cddbd v1.5.2PL0 Copyright (c) Steve Scherf et al.
# Submitted via: Collectorz.com_Music_Collector 6.11
#
DISCID=1b03c903
DTITLE=Eric Clapton - I Ain't Gonna Stand For It
DYEAR=2001
DGENRE=Blues
TTITLE0=I ain´t gonna stand for it
TTITLE1=Losing hand
TTITLE2=Johnny Guitar
EXTD=
EXTT0=
EXTT1=
EXTT2=
PLAYORDER=
